# xmcd
#
# Track frame offsets: 
#        150
#        17022
#        34750
#        54412
#        75390
#        89714
#        108014
#        123075
#        140195
#        157792
#        179919
#        199388
#        221082
#        235290
#
# Disc length: 3321 seconds
#
# Revision: 0
# Processed by: cddbd v1.5.2PL0 Copyright (c) Steve Scherf et al.
# Submitted via: ExactAudioCopyFreeDBPlugin 1.0
#
DISCID=c00cf70e
DTITLE=Musiq Soulchild - Luvanmusiq
DYEAR=2007
DGENRE=R&B
TTITLE0=B.U.D.D.Y.
TTITLE1=Ms. Philadelphia
TTITLE2=Teachme
TTITLE3=Better Man
TTITLE4=Thequestions
TTITLE5=Today
TTITLE6=Makeyouhappy
TTITLE7=Ridiculous
TTITLE8=Millionare
TTITLE9=Takeyouthere
TTITLE10=Lullaby
TTITLE11=Greatestlove
TTITLE12=Turnback
TTITLE13=B.U.D.D.Y. (Remix) (featuring Ja Rule and Fat Joe)
EXTD=
EXTT0=
EXTT1=
EXTT2=
EXTT3=
EXTT4=
EXTT5=
EXTT6=
EXTT7=
EXTT8=
EXTT9=
EXTT10=
EXTT11=
EXTT12=
EXTT13=
PLAYORDER=
